<svg width="263" height="124" viewBox="0 0 263 124" fill="none" xmlns="http://www.w3.org/2000/svg">
<path fill-rule="evenodd" clip-rule="evenodd" d="M70.9094 76.3248C72.0955 78.3811 74.221 79.6088 76.5948 79.6088H76.5949C79.287 79.6088 81.7967 78.1611 83.1445 75.8307L86.298 70.3785H70.596C69.7359 72.2948 69.8403 74.4714 70.9094 76.3248Z" fill="#C2D1D9"/>
<path fill-rule="evenodd" clip-rule="evenodd" d="M97.2536 75.8256C98.6009 78.1591 101.112 79.6088 103.806 79.6088H103.808C106.182 79.6088 108.308 78.3813 109.495 76.3252C110.565 74.4724 110.67 72.2954 109.812 70.3785H94.1087L97.2536 75.8256Z" fill="#C2D1D9"/>
<path fill-rule="evenodd" clip-rule="evenodd" d="M108.42 67.8972L102.781 58.1333H77.6273L71.9884 67.8972H108.42Z" fill="#C2D1D9"/>
<path fill-rule="evenodd" clip-rule="evenodd" d="M90.51 46.0248H89.9107C86.6498 46.0248 83.6109 47.779 81.98 50.6028L79.0613 55.6521H101.351L98.4402 50.6018C96.8099 47.779 93.771 46.0248 90.51 46.0248Z" fill="#C2D1D9"/>
<path fill-rule="evenodd" clip-rule="evenodd" d="M120.636 66.5804C120.636 64.629 121.5 63.1895 123.131 62.5497C123.867 62.2618 125.146 62.1019 126.97 62.1019H127.929C128.729 62.1019 129.433 62.1338 130.073 62.1978V60.3744C130.073 58.0393 128.889 57.2395 126.202 57.2395C125.082 57.2395 123.995 57.3994 122.907 57.7193C122.427 57.8473 122.171 57.8473 122.075 57.4634L121.916 56.7916C121.788 56.4078 121.884 56.1839 122.267 56.0879C123.643 55.672 125.018 55.4481 126.362 55.4481C130.457 55.4481 132.152 56.8236 132.152 60.1505V71.0908C132.152 71.3467 132.088 71.4107 131.8 71.4107H130.745C130.457 71.4107 130.329 71.3148 130.329 71.0908L130.265 70.0032H130.201C129.497 71.1228 128.377 71.6986 126.81 71.6986H125.21C123.803 71.6986 122.523 71.2828 121.788 70.547C121.02 69.7793 120.636 68.7876 120.636 67.54V66.5804ZM122.747 67.2841C122.747 68.2758 122.971 68.9475 123.419 69.3634C123.835 69.7473 124.475 69.9392 125.37 69.9392H126.682C128.825 69.9392 130.073 68.7876 130.073 66.6124V63.9572C129.561 63.8933 128.921 63.8613 128.153 63.8613H126.362C125.018 63.8613 124.091 64.0852 123.547 64.501C123.003 64.9169 122.747 65.6207 122.747 66.6124V67.2841Z" fill="#C2D1D9"/>
<path fill-rule="evenodd" clip-rule="evenodd" d="M136.502 50.1059C136.502 49.882 136.63 49.754 136.886 49.754H138.198C138.453 49.754 138.581 49.882 138.581 50.1059V67.2201C138.581 68.3717 138.613 68.7556 138.869 69.2354C139.029 69.4594 139.413 69.5873 140.021 69.5873H140.885C141.077 69.5873 141.269 69.6193 141.269 69.9392V71.0268C141.269 71.2828 141.173 71.4107 140.949 71.4107H139.733C138.581 71.4107 137.75 71.1548 137.27 70.675C136.758 70.1311 136.502 69.1395 136.502 67.732V50.1059Z" fill="#C2D1D9"/>
<path fill-rule="evenodd" clip-rule="evenodd" d="M144.403 51.5135C144.403 50.4899 144.979 50.01 145.875 50.01H146.003C146.93 50.01 147.41 50.5218 147.41 51.5135V51.7054C147.41 52.7291 146.867 53.2409 146.003 53.2409H145.875C144.819 53.2409 144.403 52.7611 144.403 51.7054V51.5135ZM144.883 56.088C144.883 55.864 145.011 55.7361 145.267 55.7361H146.579C146.835 55.7361 146.962 55.864 146.962 56.088V71.1549C146.962 71.3148 146.867 71.4108 146.675 71.4108H145.139C144.979 71.4108 144.883 71.3148 144.883 71.1549V56.088Z" fill="#C2D1D9"/>
<path fill-rule="evenodd" clip-rule="evenodd" d="M151.025 62.9975C151.025 57.3355 152.912 55.4481 157.167 55.4481C159.214 55.4481 160.653 56.0879 161.517 57.3675H161.581L161.741 56.1199C161.773 55.864 161.933 55.736 162.221 55.736H162.989C163.34 55.736 163.436 55.8 163.436 56.1519V76.7209C163.436 76.9448 163.34 77.0728 163.117 77.0728H161.677C161.453 77.0728 161.357 76.9448 161.357 76.7209V70.0032H161.293C160.397 71.1228 158.99 71.6986 157.071 71.6986C152.72 71.6986 151.025 69.6193 151.025 64.501V62.9975ZM153.136 64.3411C153.136 66.5164 153.488 68.0198 154.192 68.8196C154.863 69.5873 155.759 69.9072 157.327 69.9072C159.886 69.9072 161.357 68.5957 161.357 66.0685V61.3341C161.357 58.743 159.886 57.2395 157.199 57.2395C155.791 57.2395 154.959 57.5274 154.32 58.1992C153.52 59.0629 153.136 60.7583 153.136 63.2854V64.3411Z" fill="#C2D1D9"/>
<path fill-rule="evenodd" clip-rule="evenodd" d="M167.595 56.2479C167.595 55.96 167.787 55.7361 168.043 55.7361H169.226C169.514 55.7361 169.674 55.896 169.674 56.1839V66.6444C169.674 67.9239 169.898 68.6277 170.506 69.1395C171.05 69.6514 172.009 69.9073 173.385 69.9073C174.696 69.9073 175.688 69.6193 176.328 69.0115C176.872 68.4998 177.063 67.9239 177.063 66.6444V56.1519C177.063 55.896 177.223 55.7361 177.447 55.7361H178.791C179.015 55.7361 179.143 55.864 179.143 56.1519V66.9003C179.143 68.5317 178.663 69.7473 177.735 70.547C176.808 71.3468 175.56 71.6987 173.385 71.6987C171.401 71.6987 169.962 71.3148 169.034 70.547C168.075 69.7473 167.595 68.5317 167.595 66.9003V56.2479Z" fill="#C2D1D9"/>
<path fill-rule="evenodd" clip-rule="evenodd" d="M182.469 66.5804C182.469 64.629 183.333 63.1895 184.965 62.5497C185.7 62.2618 186.98 62.1019 188.803 62.1019H189.763C190.563 62.1019 191.267 62.1338 191.906 62.1978V60.3744C191.906 58.0393 190.723 57.2395 188.036 57.2395C186.916 57.2395 185.828 57.3994 184.741 57.7193C184.261 57.8473 184.005 57.8473 183.909 57.4634L183.749 56.7916C183.621 56.4078 183.717 56.1839 184.101 56.0879C185.476 55.672 186.852 55.4481 188.196 55.4481C192.29 55.4481 193.986 56.8236 193.986 60.1505V71.0908C193.986 71.3467 193.922 71.4107 193.634 71.4107H192.578C192.29 71.4107 192.162 71.3148 192.162 71.0908L192.098 70.0032H192.034C191.33 71.1228 190.211 71.6986 188.643 71.6986H187.044C185.636 71.6986 184.357 71.2828 183.621 70.547C182.853 69.7793 182.469 68.7876 182.469 67.54V66.5804ZM184.581 67.2841C184.581 68.2758 184.805 68.9475 185.253 69.3634C185.668 69.7473 186.308 69.9392 187.204 69.9392H188.515C190.659 69.9392 191.906 68.7876 191.906 66.6124V63.9572C191.394 63.8933 190.755 63.8613 189.987 63.8613H188.196C186.852 63.8613 185.924 64.0852 185.381 64.501C184.837 64.9169 184.581 65.6207 184.581 66.6124V67.2841Z" fill="#C2D1D9"/>
</svg>
