<svg width="263" height="124" viewBox="0 0 263 124" fill="none" xmlns="http://www.w3.org/2000/svg">
<path fill-rule="evenodd" clip-rule="evenodd" d="M101.651 69.8708C98.9214 75.0338 93.4944 78.5598 87.2594 78.5598H71.4117V69.8708H101.651Z" fill="#C2D1D9"/>
<path fill-rule="evenodd" clip-rule="evenodd" d="M101.651 54.7135H70.0119V46.0247H87.2594C93.4944 46.0247 98.921 49.5506 101.651 54.7135Z" fill="#C2D1D9"/>
<path fill-rule="evenodd" clip-rule="evenodd" d="M103.328 62.2925C103.328 63.645 103.151 64.9989 102.8 66.3321H73.7091V58.2529H102.8C103.151 59.5857 103.328 60.9395 103.328 62.2925Z" fill="#C2D1D9"/>
<path fill-rule="evenodd" clip-rule="evenodd" d="M124.456 53.7107V67.9268H122.138L121.975 66.5438C121.202 67.7437 119.962 68.1505 118.741 68.1505C115.792 68.1505 113.576 66.1981 113.576 62.9034C113.576 59.446 115.752 57.6562 118.68 57.6562C119.738 57.6562 121.385 58.2257 121.975 59.2629V53.7107H124.456ZM116.057 62.9034C116.057 64.6524 117.318 65.8524 118.904 65.8524C120.47 65.8524 121.812 64.7134 121.812 62.9034C121.812 61.1543 120.47 59.9747 118.904 59.9747C117.318 59.9747 116.057 61.0933 116.057 62.9034Z" fill="#C2D1D9"/>
<path fill-rule="evenodd" clip-rule="evenodd" d="M136.72 57.9003L130.598 72.1163H127.873L129.744 67.7641L125.737 57.9003H128.625L130.151 62.2322L131.107 65.0591L132.144 62.2932L133.974 57.9003H136.72Z" fill="#C2D1D9"/>
<path fill-rule="evenodd" clip-rule="evenodd" d="M145.404 67.9268V62.6797C145.404 61.1543 144.57 59.9951 142.984 59.9951C141.458 59.9951 140.421 61.2764 140.421 62.8017V67.9268H137.96V57.8799H140.177L140.34 59.2425C141.357 58.246 142.374 57.7375 143.635 57.7375C145.994 57.7375 147.885 59.507 147.885 62.6593V67.9268H145.404Z" fill="#C2D1D9"/>
<path fill-rule="evenodd" clip-rule="evenodd" d="M157.973 57.9002H160.352V67.9268H158.013L157.891 66.4624C157.322 67.642 155.756 68.2115 154.637 68.2318C151.668 68.2521 149.471 66.4218 149.471 62.9033C149.471 59.4459 151.77 57.6358 154.698 57.6562C156.041 57.6562 157.322 58.2866 157.891 59.2832L157.973 57.9002ZM151.953 62.9033C151.953 64.8151 153.275 65.954 154.922 65.954C158.827 65.954 158.827 59.873 154.922 59.873C153.275 59.873 151.953 60.9916 151.953 62.9033Z" fill="#C2D1D9"/>
<path fill-rule="evenodd" clip-rule="evenodd" d="M169.312 67.9267V62.5576C169.312 61.2356 168.62 60.0357 167.258 60.0357C165.915 60.0357 165.122 61.2356 165.122 62.5576V67.9267H162.641V57.8799H164.939L165.122 59.1001C165.651 58.0833 166.81 57.7172 167.766 57.7172C168.966 57.7172 170.166 58.2053 170.736 59.5882C171.63 58.1646 172.79 57.7578 174.091 57.7578C176.939 57.7578 178.342 59.5069 178.342 62.5169V67.9267H175.861V62.5169C175.861 61.1949 175.312 60.0764 173.969 60.0764C172.627 60.0764 171.793 61.2356 171.793 62.5576V67.9267H169.312Z" fill="#C2D1D9"/>
<path fill-rule="evenodd" clip-rule="evenodd" d="M183.374 55.0733C183.374 57.0054 180.446 57.0054 180.446 55.0733C180.446 53.1412 183.374 53.1412 183.374 55.0733ZM180.669 67.9268H183.151V57.8596H180.669V67.9268Z" fill="#C2D1D9"/>
<path fill-rule="evenodd" clip-rule="evenodd" d="M193.99 66.6454C192.831 67.7844 191.611 68.2318 190.126 68.2318C187.218 68.2318 184.798 66.4827 184.798 62.9236C184.798 59.3645 187.218 57.6155 190.126 57.6155C191.55 57.6155 192.648 58.0222 193.746 59.1001L192.18 60.7475C191.591 60.2187 190.858 59.9543 190.167 59.9543C188.499 59.9543 187.279 61.1746 187.279 62.9236C187.279 64.8354 188.581 65.8523 190.126 65.8523C190.919 65.8523 191.713 65.6286 192.323 65.0184L193.99 66.6454Z" fill="#C2D1D9"/>
</svg>
