<svg width="263" height="124" viewBox="0 0 263 124" fill="none" xmlns="http://www.w3.org/2000/svg">
<path fill-rule="evenodd" clip-rule="evenodd" d="M95.7505 47.2076L93.6719 54.3357H104.363L78.0303 88.9845L84.9602 64.7302H78.4261L84.762 36.021H118.223L109.808 47.2076H95.7505Z" fill="#C2D1D9"/>
<path fill-rule="evenodd" clip-rule="evenodd" d="M123.934 52.1993C125.151 52.1993 126.028 52.3942 126.759 52.7352L126.345 55.3901C125.931 55.1952 125.346 55.0491 124.616 55.0491C123.373 55.0491 122.302 55.4875 122.082 56.9002L121.912 57.8988H125.468L125.03 60.7485H121.449L120.061 69.5899H116.675L118.088 60.7485H116.066L116.529 57.8988H118.526L118.746 56.5592C119.281 53.1249 121.741 52.1993 123.934 52.1993Z" fill="#C2D1D9"/>
<path fill-rule="evenodd" clip-rule="evenodd" d="M138.669 57.8988L136.818 69.59H133.847L134.09 68.0798C133.092 69.2246 131.679 69.931 130.047 69.931C127.027 69.931 125.492 67.7389 125.931 65.0109L127.051 57.8988H130.412L129.341 64.7917C129.073 66.3749 129.852 67.0081 131.07 67.0081C132.385 67.0081 133.481 66.2288 134.115 65.4494L135.308 57.8988H138.669Z" fill="#C2D1D9"/>
<path fill-rule="evenodd" clip-rule="evenodd" d="M144.612 75.2893C142.566 75.2893 140.837 74.8022 139.595 74.0959L140.058 71.2461C141.227 72.0499 142.664 72.4396 144.296 72.4396C146.39 72.4396 148.241 71.5871 148.607 69.322L148.777 68.2503C148.144 69.0297 146.877 69.9309 144.807 69.9309C141.105 69.9309 139.424 66.8376 139.96 63.5251C140.447 60.4562 142.883 57.5577 146.463 57.5577C148.436 57.5577 149.727 58.4103 150.458 59.7499L150.774 57.8987H153.795L151.992 69.3707C151.31 73.6574 148.047 75.2893 144.612 75.2893ZM145.757 67.0812C147.34 67.0812 148.607 66.1313 149.264 65.0839L149.727 62.2342C149.435 61.2356 148.485 60.4075 147.121 60.4075C145.099 60.4075 143.638 61.8445 143.321 63.8418C143.053 65.5467 143.906 67.0812 145.757 67.0812Z" fill="#C2D1D9"/>
<path fill-rule="evenodd" clip-rule="evenodd" d="M154.842 69.5899L156.693 57.8988H160.079L158.228 69.5899H154.842ZM158.837 55.9746C157.716 55.9746 156.815 55.2683 157.034 53.8312C157.229 52.6134 158.155 52.1019 159.153 52.1019C160.298 52.1019 161.175 52.8326 160.956 54.2453C160.761 55.4631 159.835 55.9746 158.837 55.9746Z" fill="#C2D1D9"/>
<path fill-rule="evenodd" clip-rule="evenodd" d="M166.289 69.9309C162.587 69.9309 160.907 66.8376 161.442 63.5251C161.93 60.4562 164.317 57.5577 167.946 57.5577C170.089 57.5577 171.356 58.7025 171.965 59.8473L172.281 57.8987H175.253L173.402 69.5899H170.43L170.698 67.8606C169.797 69.0053 168.36 69.9309 166.289 69.9309ZM167.239 67.0812C168.823 67.0812 170.089 66.0825 170.747 65.0352L171.21 62.3073C170.942 61.26 169.992 60.4075 168.603 60.4075C166.582 60.4075 165.12 61.8933 164.804 63.8174C164.536 65.5467 165.388 67.0812 167.239 67.0812Z" fill="#C2D1D9"/>
<path fill-rule="evenodd" clip-rule="evenodd" d="M182.925 53.6851L182.267 57.8987H185.97L185.507 60.7485H181.805L181.05 65.4249C180.855 66.6671 181.342 67.0812 182.584 67.0812C183.412 67.0812 184.143 66.935 184.849 66.6428L184.411 69.4194C183.68 69.7361 182.535 69.9309 181.366 69.9309C179.15 69.9309 177.177 68.7861 177.64 65.8877L178.444 60.7485H176.471L176.933 57.8987H178.882L179.442 54.5132L182.925 53.6851Z" fill="#C2D1D9"/>
</svg>
