<svg width="263" height="124" viewBox="0 0 263 124" fill="none" xmlns="http://www.w3.org/2000/svg">
<path fill-rule="evenodd" clip-rule="evenodd" d="M68.6813 76.719L85.8311 86.6204C87.4881 87.5771 89.5295 87.5771 91.1865 86.6204L108.336 76.719C109.993 75.7623 111.014 73.9944 111.014 72.0811V52.2783C111.014 50.365 109.993 48.597 108.336 47.6404L91.1865 37.739C89.5295 36.7823 87.4881 36.7823 85.8311 37.739L68.6813 47.6404C67.0244 48.597 66.0037 50.365 66.0037 52.2783V72.0811C66.0037 73.9944 67.0244 75.7623 68.6813 76.719ZM92.4642 66.5566C88.7663 69.8983 89.2633 72.4444 91.6995 75.1401H91.6929C92.3845 75.9033 92.8094 76.9126 92.8094 78.0236C92.8094 80.3988 90.8839 82.3243 88.5087 82.3243C86.1336 82.3243 84.2081 80.3988 84.2081 78.0236C84.2081 76.9126 84.6331 75.9033 85.3246 75.1401H85.318C87.7542 72.4444 88.2512 69.8983 84.5533 66.5566H84.5633C83.3664 65.4768 82.6095 63.9186 82.6095 62.1796C82.6095 60.4407 83.3664 58.8825 84.5633 57.8028H84.5533C88.2512 54.461 87.7542 51.915 85.318 49.2192H85.3246C84.6331 48.456 84.2081 47.4467 84.2081 46.3357C84.2081 43.9606 86.1336 42.0351 88.5087 42.0351C90.8839 42.0351 92.8094 43.9606 92.8094 46.3357C92.8094 47.4467 92.3845 48.456 91.6929 49.2192H91.6995C89.2633 51.915 88.7663 54.461 92.4642 57.8028H92.4542C93.6512 58.8825 94.4081 60.4407 94.4081 62.1796C94.4081 63.9186 93.6512 65.4768 92.4542 66.5566H92.4642ZM79.9008 66.4715C78.6126 65.046 77.8757 63.6613 78.0055 62.1797C77.8757 60.6981 78.6126 59.3134 79.9008 57.8879H79.8943C80.5858 57.1247 81.0107 56.1155 81.0107 55.0044C81.0107 52.6292 79.0852 50.7038 76.7101 50.7038C74.3349 50.7038 72.4095 52.6292 72.4095 55.0044C72.4095 56.1155 72.8345 57.1247 73.526 57.8879H73.5194C74.8076 59.3134 75.5445 60.6981 75.4147 62.1797C75.5445 63.6613 74.8076 65.046 73.5194 66.4715H73.526C72.8345 67.2347 72.4095 68.2439 72.4095 69.355C72.4095 71.7301 74.3349 73.6556 76.7101 73.6556C79.0852 73.6556 81.0107 71.7301 81.0107 69.355C81.0107 68.2439 80.5858 67.2347 79.8943 66.4715H79.9008ZM101.603 62.1797C101.473 63.6613 102.21 65.046 103.498 66.4715H103.492C104.183 67.2347 104.608 68.2439 104.608 69.355C104.608 71.7301 102.683 73.6556 100.307 73.6556C97.9322 73.6556 96.0068 71.7301 96.0068 69.355C96.0068 68.2439 96.4318 67.2347 97.1233 66.4715H97.1167C98.405 65.046 99.1418 63.6613 99.012 62.1797C99.1418 60.6981 98.405 59.3134 97.1167 57.8879H97.1233C96.4318 57.1247 96.0068 56.1155 96.0068 55.0044C96.0068 52.6292 97.9322 50.7038 100.307 50.7038C102.683 50.7038 104.608 52.6292 104.608 55.0044C104.608 56.1155 104.183 57.1247 103.492 57.8879H103.498C102.21 59.3134 101.473 60.6981 101.603 62.1797Z" fill="#C2D1D9"/>
<path fill-rule="evenodd" clip-rule="evenodd" d="M125.421 52.8445V65.6331C125.421 66.4779 125.75 66.9707 126.43 66.9707C126.899 66.9707 127.322 66.8064 127.744 66.5953L127.908 69.1999C127.345 69.4345 126.289 69.7396 125.139 69.7396C123.309 69.7396 122.136 68.8479 122.136 66.431V52.8445H125.421" fill="#C2D1D9"/>
<path fill-rule="evenodd" clip-rule="evenodd" d="M141.682 65.7271C141.682 66.431 141.87 66.9707 142.527 66.9707C142.996 66.9707 143.372 66.8064 143.771 66.5953L143.911 69.1999C143.301 69.4815 142.292 69.7396 141.236 69.7396C139.852 69.7396 138.984 69.1765 138.632 67.9563C137.787 68.9418 136.426 69.7161 134.736 69.7161C131.311 69.7161 128.987 67.0881 128.987 63.404C128.987 59.673 131.311 57.0214 134.736 57.0214C136.332 57.0214 137.576 57.4672 138.397 58.2885V57.2325H141.682V65.7271ZM138.397 60.987C137.834 60.4004 136.755 59.8841 135.652 59.8841C133.61 59.8841 132.32 61.2921 132.32 63.404C132.32 65.4689 133.634 66.8768 135.652 66.8768C136.731 66.8768 137.74 66.384 138.397 65.774V60.987Z" fill="#C2D1D9"/>
<path fill-rule="evenodd" clip-rule="evenodd" d="M152.875 69.7396C151.209 69.7396 150.012 69.2234 149.191 68.4021V69.505H145.906V52.8445H149.191V58.265C150.036 57.5141 151.303 57.0213 152.875 57.0213C156.325 57.0213 158.648 59.6495 158.648 63.357C158.648 67.0646 156.325 69.7396 152.875 69.7396ZM151.96 59.8841C150.857 59.8841 149.825 60.4003 149.191 61.0339V65.7505C149.754 66.3136 150.81 66.8768 151.96 66.8768C153.978 66.8768 155.292 65.4689 155.292 63.357C155.292 61.2686 153.978 59.8841 151.96 59.8841Z" fill="#C2D1D9"/>
<path fill-rule="evenodd" clip-rule="evenodd" d="M166.837 56.9041C170.685 56.9041 173.454 59.673 173.454 63.404C173.454 67.0881 170.685 69.8335 166.837 69.8335C163.036 69.8335 160.267 67.0881 160.267 63.404C160.267 59.673 163.036 56.9041 166.837 56.9041ZM166.837 66.8299C168.902 66.8299 170.286 65.3281 170.286 63.404C170.286 61.4329 168.902 59.9076 166.837 59.9076C164.819 59.9076 163.434 61.4329 163.434 63.404C163.434 65.3281 164.819 66.8299 166.837 66.8299Z" fill="#C2D1D9"/>
<path fill-rule="evenodd" clip-rule="evenodd" d="M176.81 61.0339C176.81 60.3065 176.645 59.7903 175.965 59.7903C175.472 59.7903 174.909 60.0249 174.721 60.1423L174.58 57.561C174.745 57.3968 175.965 57.0214 177.255 57.0214C178.663 57.0214 179.579 57.5845 179.931 58.8751C180.517 57.7253 181.409 57.0214 183.004 57.0214C184.154 57.0214 185.046 57.4437 185.21 57.7253L184.741 60.682C184.553 60.4238 183.615 60.0484 182.488 60.0484C180.916 60.0484 180.306 61.4094 180.095 62.8408V69.505H176.81V61.0339" fill="#C2D1D9"/>
<path fill-rule="evenodd" clip-rule="evenodd" d="M197.882 68.1675C196.614 69.1999 194.808 69.8335 192.719 69.8335C188.096 69.8335 186.031 67.0177 186.031 63.404C186.031 59.7433 188.566 56.9041 192.508 56.9041C196.239 56.9041 197.999 59.1802 197.999 62.0195C197.999 62.7704 197.882 63.9437 197.741 64.413H189.411C189.716 66.126 190.818 67.0881 192.813 67.0881C194.362 67.0881 195.793 66.4545 196.638 65.8209L197.882 68.1675ZM194.855 61.4563C194.855 60.4708 194.104 59.626 192.438 59.626C190.678 59.626 189.739 60.682 189.504 61.8787H194.831C194.855 61.7614 194.855 61.5737 194.855 61.4563Z" fill="#C2D1D9"/>
</svg>
