<svg width="22" height="22" viewBox="0 0 22 22" fill="none" xmlns="http://www.w3.org/2000/svg">
<path d="M21.0834 2.74994C20.2055 3.36913 19.2336 3.84271 18.205 4.15244C17.6529 3.51766 16.9192 3.06774 16.1031 2.86354C15.287 2.65934 14.4279 2.7107 13.6419 3.01069C12.856 3.31068 12.1811 3.84481 11.7086 4.54085C11.2361 5.23689 10.9887 6.06125 11 6.90244V7.81911C9.3891 7.86088 7.79285 7.5036 6.35344 6.7791C4.91404 6.0546 3.67614 4.98536 2.75002 3.66661C2.75002 3.66661 -0.916646 11.9166 7.33335 15.5833C5.4455 16.8647 3.19658 17.5073 0.916687 17.4166C9.16669 21.9999 19.25 17.4166 19.25 6.87494C19.2492 6.61961 19.2246 6.3649 19.1767 6.11411C20.1122 5.19148 20.7724 4.02659 21.0834 2.74994V2.74994Z" stroke="white" stroke-linecap="round" stroke-linejoin="round"/>
</svg>
